# File created by Blade
# Date/Time:  Tue Jan 27 17:27:44 2015
#---------------------------------------------------------
:version 1.10
:name HOM
:units
  mass 1.0
  length 1.000000
  angle deg
:documentation
     Acclaim Skeleton File
:root
   axis xyz
   order TX TY TZ RX RY RZ
   position 0.000000 0.000000 0.000000
   orientation 0 0 0
:bonedata
   begin
      id 1
      name Spine_dum
      direction 0.000000 1.000000 0.000000
      length 7.539951
      axis 0.0 0.0 0.0 xyz
   end
   begin
      id 2
      name LeftUpLeg_dum
      direction 1.000000 0.000000 0.000000
      length 3.345476
      axis 0.0 0.0 0.0 xyz
   end
   begin
      id 3
      name RightUpLeg_dum
      direction -1.000000 0.000000 0.000000
      length 3.345476
      axis 0.0 0.0 0.0 xyz
   end
   begin
      id 4
      name Spine
      direction 0.000000 1.000000 0.000000
      length 0.000000
      axis 0.0 0.0 0.0 xyz
      dof rx ry rz
   end
   begin
      id 5
      name Spine_dum1
      direction 0.000000 1.000000 0.000000
      length 15.093809
      axis 0.0 0.0 0.0 xyz
   end
   begin
      id 6
      name Spine_dum2
      direction 0.000000 1.000000 0.000000
      length 9.738928
      axis 0.0 0.0 0.0 xyz
   end
   begin
      id 7
      name Spine_dum3
      direction 0.000000 1.000000 0.000000
      length 9.738928
      axis 0.0 0.0 0.0 xyz
   end
   begin
      id 8
      name Head
      direction 0.000000 1.000000 0.000000
      length 4.527550
      axis 0.0 0.0 0.0 xyz
      dof rx ry rz
   end
   begin
      id 9
      name LeftShoulder
      direction 1.000000 0.000000 0.000000
      length 7.084015
      axis 0.0 0.0 -90.0 xyz
      dof rx ry rz
   end
   begin
      id 10
      name LeftArm
      direction 1.000000 0.000000 0.000000
      length 10.259319
      axis 0.0 0.0 -90.0 xyz
      dof rx ry rz
   end
   begin
      id 11
      name LeftForeArm
      direction 1.000000 0.000000 0.000000
      length 9.896984
      axis 0.0 0.0 -90.0 xyz
      dof ry rz rx
   end
   begin
      id 12
      name LeftHand
      direction 0.000000 0.000000 0.000000
      length 0.000000
      axis 0.0 0.0 -90.0 xyz
      dof rx ry rz
   end
   begin
      id 13
      name LeftHand_dum1
      direction 0.000000 0.000000 0.000000
      length 0.000000
      axis 0.0 0.0 -90.0 xyz
   end
   begin
      id 14
      name LeftHand_dum2
      direction 1.000000 0.000000 0.000000
      length 3.937000
      axis 0.0 0.0 -90.0 xyz
   end
   begin
      id 15
      name LeftHandThumb1
      direction 0.000000 0.000000 1.000000
      length 3.937000
      axis 0.0 0.0 -90.0 xyz
      dof rx rz ry
   end
   begin
      id 16
      name RightShoulder
      direction -1.000000 0.000000 0.000000
      length 7.084015
      axis 0.0 0.0 90.0 xyz
      dof rx ry rz
   end
   begin
      id 17
      name RightArm
      direction -1.000000 0.000000 0.000000
      length 10.259319
      axis 0.0 0.0 90.0 xyz
      dof rx ry rz
   end
   begin
      id 18
      name RightForeArm
      direction -1.000000 0.000000 0.000000
      length 9.896984
      axis 0.0 0.0 90.0 xyz
      dof ry rz rx
   end
   begin
      id 19
      name RightHand
      direction 0.000000 0.000000 0.000000
      length 0.000000
      axis 0.0 0.0 90.0 xyz
      dof rx ry rz
   end
   begin
      id 20
      name RightHand_dum1
      direction 0.000000 0.000000 0.000000
      length 0.000000
      axis 0.0 0.0 90.0 xyz
   end
   begin
      id 21
      name RightHand_dum2
      direction -1.000000 0.000000 0.000000
      length 3.937000
      axis 0.0 0.0 90.0 xyz
   end
   begin
      id 22
      name RightHandThumb1
      direction 0.000000 0.000000 1.000000
      length 3.937000
      axis 0.0 0.0 90.0 xyz
      dof rx rz ry
   end
   begin
      id 23
      name LeftUpLeg
      direction 0.000000 -1.000000 0.000000
      length 19.114733
      axis 0.0 0.0 0.0 xyz
      dof rx ry rz
   end
   begin
      id 24
      name LeftLeg
      direction 0.000000 -1.000000 0.000000
      length 16.045604
      axis 0.0 0.0 0.0 xyz
      dof rx ry rz
   end
   begin
      id 25
      name LeftFoot
      direction 0.000000 -0.258819 0.965926
      length 5.543155
      axis 15.0 0.0 0.0 xyz
      dof rx ry rz
   end
   begin
      id 26
      name LeftToeBase
      direction 0.000000 0.000000 1.000000
      length 2.952750
      axis 0.0 0.0 0.0 xyz
      dof rx ry rz
   end
   begin
      id 27
      name RightUpLeg
      direction 0.000000 -1.000000 0.000000
      length 19.114733
      axis 0.0 0.0 0.0 xyz
      dof rx ry rz
   end
   begin
      id 28
      name RightLeg
      direction 0.000000 -1.000000 0.000000
      length 16.045604
      axis 0.0 0.0 0.0 xyz
      dof rx ry rz
   end
   begin
      id 29
      name RightFoot
      direction 0.000000 -0.258819 0.965926
      length 5.543155
      axis 15.0 0.0 0.0 xyz
      dof rx ry rz
   end
   begin
      id 30
      name RightToeBase
      direction 0.000000 0.000000 1.000000
      length 2.952750
      axis 0.0 0.0 0.0 xyz
      dof rx ry rz
   end
:hierarchy
   begin
      root Spine_dum LeftUpLeg_dum RightUpLeg_dum
      Spine_dum Spine
      LeftUpLeg_dum LeftUpLeg
      RightUpLeg_dum RightUpLeg
      Spine Spine_dum1 Spine_dum2 Spine_dum3
      Spine_dum1 Head
      Spine_dum2 LeftShoulder
      Spine_dum3 RightShoulder
      LeftShoulder LeftArm
      LeftArm LeftForeArm
      LeftForeArm LeftHand
      LeftHand LeftHand_dum1 LeftHand_dum2
      LeftHand_dum1 LeftHandThumb1
      RightShoulder RightArm
      RightArm RightForeArm
      RightForeArm RightHand
      RightHand RightHand_dum1 RightHand_dum2
      RightHand_dum1 RightHandThumb1
      LeftUpLeg LeftLeg
      LeftLeg LeftFoot
      LeftFoot LeftToeBase
      RightUpLeg RightLeg
      RightLeg RightFoot
      RightFoot RightToeBase
   end

# File created by Blade
# Date/Time:  Tue Jan 27 17:27:32 2015
# Frame Rate: 120.000 fps
#------------------------------------------------------
:FULLY-SPECIFIED
:DEGREES
143
root 4.383041 36.694230 1.026785 1.354359 -2.385538 0.676783
Spine 5.256452 8.027161 -4.546647
Head 18.234870 -1.454430 3.070779
LeftShoulder -8.619677 -8.089173 11.173115
LeftArm -13.447604 -32.375334 -35.883548
LeftForeArm -3.820765 -0.000000 83.627409
LeftHand -12.639052 -0.000000 25.877707
LeftHandThumb1 -26.253704 0.000000 33.147579
RightShoulder -10.019466 -18.853964 -0.305267
RightArm 21.275321 -22.201346 60.143783
RightForeArm 177.230493 -0.000000 35.570824
RightHand 1.734899 0.000000 1.532317
RightHandThumb1 -24.326973 -0.000000 -32.862282
LeftUpLeg -1.184681 6.443205 -5.176968
LeftLeg 9.052114 -0.000000 -0.000000
LeftFoot -19.194647 5.029453 -13.320584
LeftToeBase 14.028159 -0.000000 -0.000000
RightUpLeg -25.427581 -11.582282 -5.968268
RightLeg 75.793372 -0.000000 -0.000000
RightFoot -5.496136 -0.498016 9.348958
RightToeBase 0.426953 -0.000000 -0.000000
144
root 4.404417 36.692460 1.045856 1.194503 -2.308244 0.665943
Spine 5.411191 7.958836 -4.523482
Head 18.386428 -1.483350 3.143146
LeftShoulder -8.614147 -8.084509 11.203380
LeftArm -13.512989 -32.456760 -36.074975
LeftForeArm -3.555559 -0.000000 83.974426
LeftHand -12.769454 -0.000000 26.005436
LeftHandThumb1 -26.253704 0.000000 33.147579
RightShoulder -10.036279 -18.857894 -0.237552
RightArm 21.160202 -22.107670 60.096531
RightForeArm 177.263328 -0.000000 35.524693
RightHand 1.677703 -0.000000 1.578103
RightHandThumb1 -24.326973 -0.000000 -32.862282
LeftUpLeg -1.026966 6.519009 -5.168555
LeftLeg 9.127454 -0.000000 -0.000000
LeftFoot -19.234402 4.857449 -13.365239
LeftToeBase 14.122727 -0.000000 -0.000000
RightUpLeg -25.277496 -11.740294 -5.997805
RightLeg 76.437231 -0.000000 -0.000000
RightFoot -5.377562 -0.320167 9.473862
RightToeBase 0.288748 -0.000000 -0.000000
145
root 4.425592 36.689371 1.064339 1.055457 -2.237948 0.665349
Spine 5.528067 7.886856 -4.515424
Head 18.556412 -1.611822 3.208816
LeftShoulder -8.565737 -8.086954 11.138222
LeftArm -13.662781 -32.454734 -36.027903
LeftForeArm -3.322549 -0.000000 84.348634
LeftHand -12.972087 -0.000000 26.242617
LeftHandThumb1 -26.253704 0.000000 33.147579
RightShoulder -10.061150 -18.875321 -0.192079
RightArm 21.083178 -22.050077 60.063726
RightForeArm 177.326347 0.000000 35.422752
RightHand 1.716572 -0.000000 1.588406
RightHandThumb1 -24.326973 -0.000000 -32.862282
LeftUpLeg -0.886007 6.569443 -5.172958
LeftLeg 9.189262 -0.000000 -0.000000
LeftFoot -19.285051 4.734004 -13.372900
LeftToeBase 14.234678 -0.000000 -0.000000
RightUpLeg -25.158117 -11.917727 -6.012322
RightLeg 77.088710 -0.000000 -0.000000
RightFoot -5.347452 -0.238252 9.162869
RightToeBase 0.714536 -0.000000 -0.000000
146
root 4.444897 36.687176 1.082190 0.893093 -2.168832 0.659464
Spine 5.691715 7.843744 -4.510507
Head 18.691633 -1.667797 3.283227
LeftShoulder -8.539334 -8.085241 11.241330
LeftArm -13.755356 -32.573625 -36.312220
LeftForeArm -2.946235 -0.000000 84.670493
LeftHand -12.899525 0.000000 26.218370
LeftHandThumb1 -26.253704 0.000000 33.147579
RightShoulder -10.115767 -18.865506 -0.121535
RightArm 21.044225 -22.034850 59.997125
RightForeArm 177.407765 -0.000000 35.269894
RightHand 1.669196 -0.000000 1.554064
RightHandThumb1 -24.326973 -0.000000 -32.862282
LeftUpLeg -0.722410 6.634618 -5.166356
LeftLeg 9.250651 -0.000000 -0.000000
LeftFoot -19.317117 4.583811 -13.404882
LeftToeBase 14.303799 -0.000000 -0.000000
RightUpLeg -24.955128 -12.023426 -6.062184
RightLeg 77.642250 -0.000000 -0.000000
RightFoot -5.230605 -0.028235 8.935323
RightToeBase 0.440270 -0.000000 -0.000000
147
root 4.461942 36.685584 1.094124 0.829609 -2.084398 0.641247
Spine 5.727823 7.796562 -4.518845
Head 18.852806 -1.737448 3.395526
LeftShoulder -8.510617 -8.075307 11.295887
LeftArm -13.816225 -32.647142 -36.493786
LeftForeArm -2.730142 -0.000000 84.990580
LeftHand -12.968573 -0.000000 26.314590
LeftHandThumb1 -26.253704 0.000000 33.147579
RightShoulder -10.172924 -18.883484 -0.027393
RightArm 20.982447 -22.022296 59.942779
RightForeArm 177.398005 -0.000000 35.115952
RightHand 1.671522 -0.000000 1.596745
RightHandThumb1 -24.326973 -0.000000 -32.862282
LeftUpLeg -0.694580 6.718554 -5.151187
LeftLeg 9.377036 -0.000000 -0.000000
LeftFoot -19.360155 4.394252 -13.407555
LeftToeBase 14.368211 -0.000000 -0.000000
RightUpLeg -24.840529 -12.211443 -6.061990
RightLeg 78.120222 -0.000000 -0.000000
RightFoot -5.099818 -0.052334 9.045734
RightToeBase 0.184469 -0.000000 -0.000000
148
root 4.479406 36.683036 1.108318 0.752509 -1.993258 0.629966
Spine 5.777556 7.739120 -4.528135
Head 18.998285 -1.853511 3.516185
LeftShoulder -8.497487 -8.053373 11.329862
LeftArm -13.840322 -32.727190 -36.659002
LeftForeArm -2.526882 -0.000000 85.293014
LeftHand -13.073030 -0.000000 26.401038
LeftHandThumb1 -26.253704 0.000000 33.147579
RightShoulder -10.215944 -18.899266 0.040805
RightArm 20.899575 -21.986531 59.943990
RightForeArm 177.414285 -0.000000 34.950577
RightHand 1.754088 -0.000000 1.590592
RightHandThumb1 -24.326973 -0.000000 -32.862282
LeftUpLeg -0.649804 6.810242 -5.141994
LeftLeg 9.500126 -0.000000 -0.000000
LeftFoot -19.410851 4.193982 -13.429637
LeftToeBase 14.465056 -0.000000 -0.000000
RightUpLeg -24.677217 -12.368289 -6.072412
RightLeg 78.559386 -0.000000 -0.000000
RightFoot -5.167357 0.079855 8.734229
RightToeBase 0.547843 -0.000000 -0.000000
